<?xml version="1.0" encoding="UTF-8" standalone="no"?>
<svg width="1065px" height="124px" viewBox="0 0 1065 124" version="1.1" xmlns="http://www.w3.org/2000/svg" xmlns:xlink="http://www.w3.org/1999/xlink" xmlns:sketch="http://www.bohemiancoding.com/sketch/ns">
    <!-- Generator: Sketch 3.4.4 (17249) - http://www.bohemiancoding.com/sketch -->
    <title>Sure Power Houses + noun_199172_cc</title>
    <desc>Created with Sketch.</desc>
    <defs></defs>
    <g id="Wordmark" stroke="none" stroke-width="1" fill="none" fill-rule="evenodd" sketch:type="MSPage">
        <g sketch:type="MSArtboardGroup" transform="translate(-1916.000000, -1850.000000)">
            <g id="Template" sketch:type="MSLayerGroup">
                <rect id="Rectangle-2" fill="#FFFFFF" sketch:type="MSShapeGroup" x="0" y="0" width="3960" height="2552"></rect>
                <rect id="Rectangle-1" fill="#EFF2F3" sketch:type="MSShapeGroup" x="1069" y="224" width="2737.02002" height="2104.28003"></rect>
            </g>
            <g id="Pryvate" sketch:type="MSLayerGroup" transform="translate(1689.000000, 326.000000)">
                <g id="White-+-Wordmark-+-Icon-Blue-+-White-+-Wordmark-+-Icon-Blue-+-Blue-+-Wordmark-+-Icon-White">
                    <g id="White-+-Wordmark-+-Icon-Blue" transform="translate(0.000000, 1267.000000)" fill="#FFFFFF" sketch:type="MSShapeGroup">
                        <rect id="White" x="0" y="0" width="1498" height="633.333333"></rect>
                    </g>
                    <g id="Sure-Power-Houses-+-noun_199172_cc" transform="translate(226.000000, 1520.000000)" fill="#7ED321">
                        <text id="Sure-Power-Houses" sketch:type="MSTextLayer" font-family="Blenda Script" font-size="95.472" font-weight="normal">
                            <tspan x="318" y="95">Sure Power Houses</tspan>
                        </text>
                        <g id="noun_199172_cc" transform="translate(0.000000, 4.000000)" sketch:type="MSShapeGroup">
                            <path d="M223.451467,0.934857143 C225.253778,0.934857143 227.037822,1.12990476 228.724444,1.49257143 C230.411067,1.8552381 232.012444,2.37638095 233.4342,3.02552381 C234.862044,3.67771429 236.116356,4.45790476 237.108844,5.32952381 C238.107422,6.2072381 238.850267,7.17638095 239.230822,8.20342857 L274.278467,101.329524 C274.984778,103.206857 275.158311,105.017143 274.850822,106.675048 C274.546378,108.351238 273.757867,109.872 272.549222,111.158095 C271.337533,112.456381 269.699622,113.510857 267.720733,114.245333 C265.735756,114.982857 263.4098,115.391238 260.822022,115.391238 L15.1840667,115.391238 C12.5932444,115.391238 10.2642444,114.982857 8.27622222,114.245333 C6.29733333,113.513905 4.66246667,112.456381 3.44773333,111.158095 C2.24213333,109.872 1.45057778,108.351238 1.14308889,106.675048 C0.838644444,105.017143 1.00913333,103.206857 1.71544444,101.329524 L36.7600444,8.20342857 C37.1466889,7.17638095 37.8864889,6.2072381 38.8850667,5.32952381 C39.8775556,4.45790476 41.1318667,3.67771429 42.5627556,3.02552381 C43.9845111,2.37638095 45.5828444,1.85219048 47.2755556,1.49257143 C48.9621778,1.13295238 50.7462222,0.934857143 52.5485333,0.934857143 L223.451467,0.934857143 L223.451467,0.934857143 Z M256.234044,101.326476 L225.832222,8.20342857 L50.1738667,8.20342857 L19.7720444,101.329524 L256.234044,101.329524 L256.234044,101.326476 Z" id="Shape"></path>
                            <path d="M272.710578,114.382476 C271.906844,115.281524 270.914356,116.070857 269.742244,116.723048 C268.564044,117.378286 267.221444,117.896381 265.723578,118.249905 C264.2318,118.603429 262.584756,118.795429 260.818978,118.795429 L260.818978,118.795429 L15.1840667,118.795429 C13.4152444,118.795429 11.7712444,118.606476 10.2733778,118.249905 C8.77551111,117.896381 7.42986667,117.378286 6.25471111,116.723048 C5.08564444,116.070857 4.08706667,115.281524 3.28637778,114.382476 C2.48873333,113.489524 1.88897778,112.489905 1.50233333,111.404952 C2.01075556,112.831238 2.51613333,114.254476 3.02455556,115.674667 C3.40815556,116.756571 4.00791111,117.762286 4.79946667,118.655238 C5.59406667,119.554286 6.58351111,120.343619 7.74344444,120.99581 C8.90642222,121.651048 10.2429333,122.169143 11.7225333,122.522667 C13.2051778,122.87619 14.8339556,123.06819 16.5814667,123.06819 L259.430711,123.06819 L259.430711,123.06819 C261.172133,123.06819 262.800911,122.879238 264.283556,122.519619 C265.763156,122.169143 267.096622,121.651048 268.256556,120.99581 C269.416489,120.343619 270.408978,119.554286 271.200533,118.655238 C271.998178,117.762286 272.591844,116.762667 272.978489,115.677714 C273.483867,114.251429 273.995333,112.82819 274.500711,111.404952 C274.107978,112.486857 273.508222,113.492571 272.710578,114.382476 L272.710578,114.382476 Z" id="Shape"></path>
                            <path d="M34.2757778,92.5889524 L99.4329778,92.5889524 L103.497311,55.3287619 L45.2114222,55.3287619 L34.2757778,92.5889524 Z" id="Shape"></path>
                            <path d="M108.091378,13.2380952 L57.5657778,13.2380952 L46.6301333,50.5013333 L104.024,50.5013333 L108.091378,13.2380952 Z" id="Shape"></path>
                            <path d="M218.434222,13.2380952 L167.908622,13.2380952 L171.982089,50.5013333 L229.369867,50.5013333 L218.434222,13.2380952 Z" id="Shape"></path>
                            <path d="M176.573111,92.5889524 L241.718133,92.5889524 L230.785533,55.3287619 L172.505733,55.3287619 L176.573111,92.5889524 Z" id="Shape"></path>
                            <path d="M162.790911,13.2380952 L113.215178,13.2380952 L109.844978,50.5013333 L166.155022,50.5013333 L162.790911,13.2380952 Z" id="Shape"></path>
                            <path d="M106.039422,92.5889524 L169.966667,92.5889524 L166.596467,55.3287619 L109.409622,55.3287619 L106.039422,92.5889524 Z" id="Shape"></path>
                        </g>
                    </g>
                </g>
            </g>
        </g>
    </g>
</svg>