<?xml version="1.0" encoding="UTF-8" standalone="no"?>
<svg width="898px" height="507px" viewBox="0 0 898 507" version="1.1" xmlns="http://www.w3.org/2000/svg" xmlns:xlink="http://www.w3.org/1999/xlink" xmlns:sketch="http://www.bohemiancoding.com/sketch/ns">
    <!-- Generator: Sketch 3.4.4 (17249) - http://www.bohemiancoding.com/sketch -->
    <title>Sure Power Houses + noun_199172_cc</title>
    <desc>Created with Sketch.</desc>
    <defs></defs>
    <g id="Lockup" stroke="none" stroke-width="1" fill="none" fill-rule="evenodd" sketch:type="MSPage">
        <g id="Sure-Power-Houses-+-noun_199172_cc" sketch:type="MSLayerGroup" fill="#7ED321">
            <text id="Sure-Power-Houses" sketch:type="MSTextLayer" font-family="Blenda Script" font-size="114.5664" font-weight="normal">
                <tspan x="0" y="504.491071">Sure Power Houses</tspan>
            </text>
            <g id="noun_199172_cc" transform="translate(78.834225, 0.000000)" sketch:type="MSShapeGroup">
                <path d="M602.807188,0.525992347 C607.685432,0.525992347 612.514234,1.05301276 617.079347,2.03294133 C621.64446,3.0128699 625.978846,4.42100255 629.827055,6.17499235 C633.691745,7.93721684 637.086739,10.0452985 639.773069,12.4004209 C642.475879,14.7720128 644.486507,17.3906454 645.516541,20.1657372 L740.378605,271.793278 C742.290349,276.865849 742.760045,281.757258 741.927777,286.236931 C741.10375,290.766013 738.969518,294.875125 735.698128,298.350166 C732.418498,301.858145 727.985229,304.707349 722.62905,306.691911 C717.256389,308.684707 710.960818,309.788156 703.956583,309.788156 L39.0981087,309.788156 C32.0856333,309.788156 25.7818218,308.684707 20.4009212,306.691911 C15.0447414,304.715584 10.6197129,301.858145 7.33184254,298.350166 C4.06869302,294.875125 1.92622112,290.766013 1.09395318,286.236931 C0.269925527,281.757258 0.731381014,276.865849 2.64312518,271.793278 L97.4969487,20.1657372 C98.5434638,17.3906454 100.545851,14.7720128 103.248662,12.4004209 C105.934992,10.0452985 109.329986,7.93721684 113.202916,6.17499235 C117.051125,4.42100255 121.37727,3.0046352 125.958864,2.03294133 C130.523977,1.06124745 135.352779,0.525992347 140.231023,0.525992347 L602.807188,0.525992347 L602.807188,0.525992347 Z M691.538486,271.785043 L609.251084,20.1657372 L133.803607,20.1657372 L51.5162055,271.793278 L691.538486,271.793278 L691.538486,271.785043 Z" id="Shape"></path>
                <path d="M736.134863,307.062472 C733.95943,309.491707 731.2731,311.624492 728.100593,313.386717 C724.911606,315.157176 721.277644,316.557074 717.223428,317.512298 C713.185693,318.467523 708.727703,318.986309 703.948343,318.986309 L703.948343,318.986309 L39.0981087,318.986309 C34.310508,318.986309 29.8607587,318.475758 25.8065426,317.512298 C21.7523265,316.557074 18.1101243,315.157176 14.9293775,313.386717 C11.7651113,311.624492 9.06230062,309.491707 6.89510788,307.062472 C4.73615542,304.649707 3.11282094,301.948727 2.06630582,299.017176 C3.442432,302.871013 4.81031791,306.716615 6.1864441,310.553982 C7.22471895,313.477298 8.84805343,316.194747 10.9905253,318.607513 C13.1412375,321.036747 15.8193274,323.169533 18.9588728,324.931758 C22.1066584,326.702217 25.7241398,328.102115 29.7289142,329.057339 C33.7419289,330.012564 38.1504769,330.531349 42.8803956,330.531349 L700.190776,330.531349 L700.190776,330.531349 C704.904215,330.531349 709.312763,330.020798 713.325777,329.049105 C717.330552,328.102115 720.939793,326.702217 724.079338,324.931758 C727.218884,323.169533 729.905214,321.036747 732.047686,318.607513 C734.206638,316.194747 735.813492,313.493768 736.860007,310.562217 C738.227893,306.70838 739.61226,302.862778 740.980145,299.017176 C739.91715,301.940492 738.293815,304.657941 736.134863,307.062472 L736.134863,307.062472 Z" id="Shape"></path>
                <path d="M90.772883,248.176176 L267.131282,248.176176 L278.132051,147.498809 L120.371956,147.498809 L90.772883,248.176176 Z" id="Shape"></path>
                <path d="M290.566629,33.7694515 L153.810999,33.7694515 L124.211925,134.455054 L279.557619,134.455054 L290.566629,33.7694515 Z" id="Shape"></path>
                <path d="M589.227212,33.7694515 L452.471582,33.7694515 L463.497072,134.455054 L618.826286,134.455054 L589.227212,33.7694515 Z" id="Shape"></path>
                <path d="M475.92341,248.176176 L652.248847,248.176176 L622.658014,147.498809 L464.9144,147.498809 L475.92341,248.176176 Z" id="Shape"></path>
                <path d="M438.619678,33.7694515 L304.435014,33.7694515 L295.313028,134.455054 L447.725183,134.455054 L438.619678,33.7694515 Z" id="Shape"></path>
                <path d="M285.012682,248.176176 L458.042009,248.176176 L448.920023,147.498809 L294.134668,147.498809 L285.012682,248.176176 Z" id="Shape"></path>
            </g>
        </g>
    </g>
</svg>