<?xml version="1.0" encoding="utf-8"?>
<!-- Generator: Adobe Illustrator 18.1.1, SVG Export Plug-In . SVG Version: 6.00 Build 0)  -->
<svg version="1.1" id="Layer_1" xmlns:sketch="http://www.bohemiancoding.com/sketch/ns"
	 xmlns="http://www.w3.org/2000/svg" xmlns:xlink="http://www.w3.org/1999/xlink" x="0px" y="0px" viewBox="373 179 320.4 166.8"
	 enable-background="new 373 179 320.4 166.8" xml:space="preserve">
<g id="noun_199172_cc" transform="translate(0.000000, 4.000000)" sketch:type="MSShapeGroup">
	<path id="Shape" fill="#FFFFFF" d="M622.1,194.9c1.9,0,3.7,0.2,5.5,0.6s3.4,0.9,4.9,1.6c1.5,0.7,2.8,1.5,3.8,2.4
		c1,0.9,1.8,1.9,2.2,3l36.5,96.9c0.7,2,0.9,3.8,0.6,5.6c-0.3,1.7-1.1,3.3-2.4,4.7c-1.3,1.4-3,2.4-5,3.2c-2.1,0.8-4.5,1.2-7.2,1.2
		H405.4c-2.7,0-5.1-0.4-7.2-1.2c-2.1-0.8-3.8-1.9-5-3.2c-1.3-1.3-2.1-2.9-2.4-4.7c-0.3-1.7-0.1-3.6,0.6-5.6l36.5-96.9
		c0.4-1.1,1.2-2.1,2.2-3c1-0.9,2.3-1.7,3.8-2.4c1.5-0.7,3.1-1.2,4.9-1.6c1.8-0.4,3.6-0.6,5.5-0.6H622.1L622.1,194.9z M656.2,299.3
		l-31.6-96.9H441.8l-31.6,96.9L656.2,299.3L656.2,299.3z"/>
	<path id="Shape_1_" fill="#FFFFFF" d="M673.3,312.9c-0.8,0.9-1.9,1.8-3.1,2.4c-1.2,0.7-2.6,1.2-4.2,1.6c-1.6,0.4-3.3,0.6-5.1,0.6
		l0,0H405.4c-1.8,0-3.5-0.2-5.1-0.6c-1.6-0.4-3-0.9-4.2-1.6c-1.2-0.7-2.3-1.5-3.1-2.4c-0.8-0.9-1.5-2-1.9-3.1c0.5,1.5,1.1,3,1.6,4.4
		c0.4,1.1,1,2.2,1.8,3.1c0.8,0.9,1.9,1.8,3.1,2.4c1.2,0.7,2.6,1.2,4.1,1.6c1.5,0.4,3.2,0.6,5.1,0.6h252.6l0,0c1.8,0,3.5-0.2,5-0.6
		c1.5-0.4,2.9-0.9,4.1-1.6c1.2-0.7,2.2-1.5,3.1-2.4c0.8-0.9,1.4-2,1.8-3.1c0.5-1.5,1.1-3,1.6-4.4C674.8,310.9,674.1,312,673.3,312.9
		L673.3,312.9z"/>
	<path id="Shape_2_" fill="#FFFFFF" d="M425.3,290.2h67.8l4.2-38.8h-60.6L425.3,290.2z"/>
	<path id="Shape_3_" fill="#FFFFFF" d="M502.1,207.7h-52.6l-11.4,38.8h59.7L502.1,207.7z"/>
	<path id="Shape_4_" fill="#FFFFFF" d="M616.8,207.7h-52.6l4.2,38.8h59.7L616.8,207.7z"/>
	<path id="Shape_5_" fill="#FFFFFF" d="M573.3,290.2h67.8l-11.4-38.8h-60.6L573.3,290.2z"/>
	<path id="Shape_6_" fill="#FFFFFF" d="M559,207.7h-51.6l-3.5,38.8h58.6L559,207.7z"/>
	<path id="Shape_7_" fill="#FFFFFF" d="M499.9,290.2h66.5l-3.5-38.8h-59.5L499.9,290.2z"/>
</g>
</svg>
